<?xml version="1.0" standalone="no"?>
<!DOCTYPE svg PUBLIC "-//W3C//DTD SVG 20010904//EN"
 "http://www.w3.org/TR/2001/REC-SVG-20010904/DTD/svg10.dtd">
<svg version="1.0" xmlns="http://www.w3.org/2000/svg"
 width="640.000000pt" height="640.000000pt" viewBox="0 0 640.000000 640.000000"
 preserveAspectRatio="xMidYMid meet">

<g transform="translate(0.000000,640.000000) scale(0.100000,-0.100000)"
fill="#000000" stroke="none">
<path d="M2221 6334 c-136 -94 -183 -133 -305 -252 -232 -227 -377 -434 -548
-782 -98 -199 -144 -276 -198 -331 -8 -8 -42 -46 -75 -84 -33 -38 -79 -90
-103 -115 -214 -236 -467 -572 -602 -801 -86 -144 -181 -348 -179 -382 0 -6 6
4 14 24 21 58 144 299 183 359 166 258 238 358 375 529 84 103 343 409 357
421 5 4 102 117 240 280 21 24 36 49 33 54 -3 5 -11 -1 -17 -12 -6 -11 -23
-30 -38 -42 l-27 -21 15 38 c97 232 303 557 483 762 107 121 365 330 484 390
28 15 36 31 15 31 -7 -1 -55 -30 -107 -66z"/>
<path d="M2500 6393 c-34 -13 -200 -121 -265 -174 -72 -58 -122 -109 -188
-191 -21 -26 -44 -53 -50 -60 -7 -7 -33 -40 -57 -73 -24 -33 -74 -101 -112
-151 -37 -49 -68 -93 -68 -97 0 -11 -98 -155 -165 -242 -34 -44 -84 -116 -113
-160 -28 -44 -67 -101 -87 -127 -19 -25 -35 -49 -35 -52 0 -3 -8 -14 -17 -25
-10 -10 -29 -34 -43 -52 -29 -39 -136 -164 -221 -259 -105 -118 -119 -135
-119 -147 0 -7 -4 -13 -9 -13 -5 0 -37 -36 -72 -80 -34 -44 -65 -80 -69 -80
-3 0 -35 -38 -69 -85 -35 -47 -68 -85 -72 -85 -5 0 -9 -5 -9 -11 0 -6 -18 -31
-40 -56 -22 -25 -40 -51 -40 -58 0 -7 -7 -15 -15 -19 -8 -3 -15 -10 -15 -15 0
-15 -60 -101 -70 -101 -5 0 -7 -6 -4 -14 3 -8 -4 -23 -15 -33 -12 -9 -21 -20
-21 -24 0 -4 -16 -30 -35 -59 -19 -29 -35 -58 -35 -66 0 -8 -4 -14 -10 -14 -5
0 -12 -11 -16 -25 -3 -14 -9 -25 -14 -25 -4 0 -13 -19 -20 -42 -7 -24 -18 -52
-26 -63 -16 -22 -19 -65 -5 -65 5 0 12 10 14 23 2 12 3 3 1 -21 -1 -23 2 -45
7 -48 5 -3 9 5 10 18 l0 23 9 -23 c5 -12 6 -30 3 -39 -4 -11 -3 -14 6 -9 11 7
10 35 -6 91 -5 17 -4 18 10 3 9 -9 14 -25 11 -39 -4 -17 1 -13 15 13 12 20 25
39 30 42 8 5 -11 -38 -55 -127 -8 -16 -14 -35 -14 -42 0 -7 -3 -15 -8 -17 -10
-4 -55 -145 -50 -159 2 -6 19 29 37 77 55 144 215 463 227 451 2 -2 -9 -55
-25 -118 -70 -281 -98 -534 -82 -750 6 -78 13 -144 15 -146 3 -3 2 69 -1 158
-6 171 5 338 33 489 9 47 20 90 25 96 5 6 7 18 4 26 -3 8 1 30 9 49 14 31 15
32 16 9 1 -14 5 -34 10 -45 7 -14 8 -9 4 20 -4 31 -3 36 5 23 14 -21 14 -33 0
-198 -21 -248 -13 -576 12 -515 5 12 6 1 3 -27 -4 -28 -1 -54 5 -65 11 -16 11
-16 6 5 -5 16 -2 22 10 22 9 0 14 -4 11 -9 -8 -13 5 -71 15 -71 5 0 9 62 10
138 1 75 5 148 9 162 l8 25 1 -27 c1 -14 4 -35 8 -45 6 -15 9 -13 15 12 6 26
7 25 3 -8 -2 -20 2 -52 9 -70 8 -17 17 -63 21 -102 15 -144 28 -233 55 -360
40 -189 113 -373 188 -473 13 -17 19 -32 13 -32 -6 0 -11 3 -11 8 -1 11 -71
84 -77 79 -2 -3 5 -15 16 -26 12 -12 18 -21 14 -21 -5 0 -3 -4 2 -8 6 -4 26
-25 45 -46 l35 -38 -35 16 -35 17 25 -20 c34 -28 148 -83 161 -79 6 2 -4 14
-22 27 -71 49 -178 209 -225 336 -54 144 -54 176 0 72 57 -112 101 -171 176
-240 73 -68 155 -108 235 -116 51 -5 60 -9 63 -27 3 -20 -16 -83 -87 -288 -17
-49 -31 -101 -31 -116 0 -38 -27 -65 -78 -79 -24 -7 -42 -14 -39 -17 2 -2 16
0 31 6 51 19 54 15 39 -42 -7 -29 -18 -54 -23 -56 -20 -7 -156 -102 -185 -129
-17 -15 -42 -44 -57 -63 -15 -19 -28 -29 -28 -22 0 31 47 101 104 156 62 60
50 63 -15 4 -90 -83 -117 -143 -139 -309 -10 -76 -9 -101 9 -207 34 -200 108
-380 185 -449 157 -142 334 -266 373 -261 22 3 12 12 -76 71 -193 131 -301
229 -356 322 -34 58 -91 220 -105 299 -7 39 -10 106 -8 157 5 74 11 100 40
161 43 89 96 151 179 206 67 45 94 53 85 25 -23 -78 -38 -262 -33 -418 4 -150
8 -179 32 -250 27 -79 61 -155 70 -155 3 0 -4 21 -14 48 -41 103 -61 234 -61
393 0 204 31 421 61 427 12 2 13 -20 11 -139 -8 -317 67 -611 198 -779 15 -19
37 -53 49 -75 11 -22 54 -77 94 -121 41 -45 89 -103 106 -128 l32 -46 126 0
125 0 -7 77 c-4 43 -11 80 -15 83 -5 3 -12 34 -16 69 -6 58 -5 64 10 58 10 -4
20 -7 22 -7 2 0 4 -9 4 -21 0 -11 -4 -18 -8 -15 -10 6 -4 -63 8 -89 5 -11 9
-27 8 -35 -1 -8 0 -39 0 -67 2 -46 5 -53 22 -53 14 0 20 7 20 23 0 38 -27 255
-48 387 -38 234 -45 339 -40 614 2 146 8 269 12 273 4 4 12 -1 18 -12 17 -30
137 -146 190 -183 42 -29 107 -62 123 -62 3 0 -20 24 -52 54 -37 34 -75 84
-106 138 -26 47 -47 87 -47 89 0 2 39 4 88 5 48 0 130 8 182 17 52 8 136 18
186 22 l92 6 12 -88 c21 -149 61 -293 82 -293 6 0 7 8 3 18 -19 46 -40 239
-31 276 8 33 18 33 69 -2 59 -41 327 -176 417 -210 l75 -29 150 8 c233 12 379
33 573 82 50 13 92 19 92 15 0 -15 -48 -103 -100 -184 -27 -44 -50 -83 -50
-88 0 -12 110 141 163 225 59 95 79 101 176 47 41 -22 86 -44 100 -47 33 -9
36 -23 9 -53 -42 -46 -71 -81 -92 -112 -12 -17 -53 -74 -91 -126 -128 -173
-182 -271 -244 -440 -39 -106 -53 -167 -66 -302 l-7 -68 31 0 c30 0 31 1 31
45 0 53 24 119 85 239 46 88 95 168 95 153 0 -5 -16 -43 -35 -84 -32 -70 -65
-200 -78 -311 l-5 -42 193 0 194 1 64 77 c85 102 224 245 201 207 -10 -16 -34
-57 -55 -90 -36 -60 -99 -180 -99 -190 0 -3 31 -5 69 -5 l69 0 162 218 c169
227 245 343 311 475 22 42 43 77 49 77 5 0 35 -7 66 -15 76 -20 82 -11 8 11
-78 22 -76 20 -57 59 14 30 22 35 52 37 l36 1 -32 4 c-18 2 -33 9 -33 15 0 6
12 43 26 82 45 122 82 283 119 506 20 118 38 222 41 231 2 9 25 31 50 49 25
18 51 43 57 57 6 14 34 37 67 53 145 73 343 269 406 400 16 33 30 56 32 51 8
-23 -53 -193 -106 -296 -44 -88 -70 -125 -128 -183 -39 -39 -66 -72 -59 -72
27 0 157 73 204 116 183 165 315 519 356 959 6 62 11 92 31 170 4 17 3 18 -6
5 -11 -15 -11 -3 5 430 3 74 2 129 -1 121 -5 -10 -10 -6 -20 15 l-12 29 -3
-35 -2 -35 -6 35 c-7 33 -8 31 -18 -30 -9 -56 -11 -60 -12 -24 0 22 -4 44 -8
48 -5 4 -17 35 -29 69 -13 40 -28 65 -41 71 -12 6 -34 31 -49 57 -26 46 -51
58 -39 19 6 -19 -13 -70 -26 -70 -5 0 -11 12 -15 28 -10 44 -55 192 -79 257
-21 59 -28 80 -62 203 -18 65 -34 75 -44 26 -5 -25 -7 -21 -18 31 -6 33 -16
78 -21 100 -5 22 -12 54 -15 70 -9 49 -13 67 -30 129 -8 33 -17 67 -19 75 -2
9 -6 25 -10 36 -5 11 -12 34 -18 50 -15 45 -36 91 -80 179 -21 44 -36 86 -33
93 2 8 1 12 -4 9 -12 -8 -34 20 -27 33 3 5 2 11 -3 13 -5 1 -32 41 -60 88
-121 200 -342 434 -560 593 -36 26 -67 44 -70 41 -3 -3 7 -15 24 -27 216 -157
443 -402 570 -615 6 -9 22 -35 37 -58 120 -184 260 -565 259 -707 0 -23 4 -35
11 -31 6 4 6 -1 -1 -14 -6 -11 -11 -37 -11 -56 0 -20 -3 -36 -6 -36 -9 0 -44
41 -44 52 0 5 -9 7 -20 3 -23 -7 -61 46 -81 116 -7 24 -21 50 -31 57 -12 9
-17 21 -13 33 4 10 2 26 -4 36 -8 16 -10 14 -16 -10 -4 -15 -11 -27 -16 -27
-17 0 -9 -32 14 -51 19 -16 20 -20 7 -28 -8 -6 -24 -8 -36 -5 -30 8 -82 -40
-65 -60 7 -8 8 -17 3 -20 -19 -12 -52 54 -62 126 -6 40 -14 87 -19 103 -5 17
-9 37 -10 45 0 8 -14 55 -30 104 -19 52 -31 109 -31 138 0 41 -3 49 -15 44
-10 -4 -15 1 -15 15 0 11 -15 52 -33 92 -19 40 -42 90 -51 112 -10 22 -22 49
-27 60 -6 12 -11 29 -13 40 -1 10 -8 21 -14 23 -7 2 -12 12 -12 21 0 10 -12
31 -26 47 -20 22 -25 24 -19 9 4 -11 9 -35 12 -53 3 -19 12 -36 19 -39 7 -2
16 -18 19 -34 4 -16 11 -31 16 -34 12 -8 12 -55 -1 -55 -5 0 -10 11 -10 25 0
14 -4 25 -10 25 -5 0 -7 -6 -4 -14 4 -11 -7 -15 -45 -17 -36 -3 -51 0 -51 9 0
6 -4 12 -9 12 -5 0 -11 12 -13 28 -2 15 -3 -67 -3 -183 0 -115 -3 -226 -6
-245 -3 -19 -6 73 -6 205 0 196 -3 264 -20 370 -12 72 -26 141 -32 155 -11 24
-11 24 -6 -5 3 -16 12 -129 20 -250 20 -295 1 -756 -26 -630 -6 29 -7 29 -8
-7 -1 -37 -13 -49 -26 -28 -4 6 -11 8 -16 4 -6 -3 -16 2 -24 12 -11 15 -16 16
-26 7 -19 -18 -35 5 -43 62 -15 114 -23 273 -19 386 5 116 5 119 -16 119 -20
0 -21 -5 -19 -60 3 -78 -9 -88 -17 -13 -3 32 -12 105 -20 163 -8 58 -18 206
-23 330 -9 230 -13 254 -67 382 -6 15 -2 16 57 2 209 -47 596 -262 768 -425
36 -34 83 -78 105 -99 76 -72 172 -175 229 -245 32 -38 68 -81 80 -95 124
-136 361 -544 416 -716 16 -52 30 -102 30 -112 0 -10 4 -22 9 -28 9 -9 39
-149 46 -212 4 -37 11 -49 22 -38 4 3 1 28 -5 54 -6 26 -23 94 -36 152 -14 58
-34 132 -46 164 -11 33 -20 75 -20 95 0 28 -3 33 -11 21 -9 -12 -10 -11 -6 8
3 12 1 20 -3 17 -4 -3 -15 16 -24 42 -19 56 -19 54 -1 47 8 -4 15 -16 15 -28
0 -11 5 -28 11 -36 8 -12 9 -10 5 10 -3 14 -6 31 -6 38 0 7 -11 17 -24 23 -14
7 -27 22 -30 34 -3 13 -22 47 -41 76 -19 30 -35 57 -35 62 0 4 -25 46 -55 91
-30 46 -58 91 -61 101 -4 9 -20 31 -36 48 -64 70 -85 117 -84 184 0 35 -3 65
-9 67 -5 2 -7 7 -2 11 8 9 38 -26 31 -36 -2 -4 6 -15 18 -25 20 -18 21 -18 15
-1 -12 34 5 40 29 12 13 -16 24 -25 24 -21 0 16 -115 178 -161 226 -53 56 -57
69 -35 142 8 25 18 83 22 128 5 57 19 117 47 194 133 371 151 438 129 473 -15
24 -133 74 -165 71 -29 -3 -27 -5 33 -27 93 -34 120 -57 120 -101 0 -19 -21
-94 -46 -165 -121 -345 -144 -416 -144 -456 0 -52 -20 -169 -29 -169 -3 0 -15
14 -26 30 -11 17 -37 38 -58 47 -21 10 -47 32 -58 50 -24 39 -126 133 -200
186 -170 120 -342 217 -387 217 -11 0 -53 15 -93 33 -41 19 -107 46 -147 61
-80 31 -90 50 -38 75 36 17 190 41 276 42 55 1 61 2 35 10 -43 13 -221 0 -283
-22 -59 -20 -57 -21 -66 51 -6 51 -9 48 99 107 40 22 53 33 39 33 -12 0 -48
-13 -79 -30 -31 -16 -63 -30 -71 -30 -7 0 -23 14 -36 30 l-22 30 -192 0 -193
0 -34 -32 c-19 -18 -40 -50 -48 -70 -15 -44 -21 -46 -42 -14 -9 13 -31 34 -48
47 -30 21 -29 18 15 -37 54 -69 52 -71 -66 -55 -155 21 -452 4 -507 -29 -12
-8 -9 -9 14 -5 108 20 227 27 350 21 129 -6 234 -24 220 -38 -3 -3 13 -8 36
-12 23 -4 51 -13 62 -21 25 -18 19 -19 -18 -5 -23 9 -26 8 -21 -5 8 -21 -27
-27 -94 -16 -36 6 -62 5 -74 -1 -19 -10 -19 -11 -1 -24 29 -22 37 -21 -340
-43 -161 -10 -308 -29 -420 -55 -33 -8 -76 -17 -95 -21 -30 -5 -32 -4 -15 6
11 7 28 21 37 32 15 16 163 107 176 107 2 0 15 9 29 20 14 11 40 20 57 21 l31
1 -30 13 c-40 19 -99 18 -136 -1 -19 -9 -61 -16 -110 -17 l-79 -2 0 55 c0 30
6 83 14 118 l13 62 -261 -1 c-144 0 -268 -3 -276 -6z m1793 -31 c7 -5 42 -12
78 -15 36 -3 90 -15 120 -26 30 -12 64 -21 76 -21 18 0 25 -9 33 -41 6 -23 8
-53 4 -68 -4 -14 -7 -30 -6 -34 3 -13 -26 -20 -53 -13 -14 4 -23 11 -20 16 4
6 11 8 16 5 5 -4 9 -1 9 5 0 6 5 8 10 5 6 -3 10 -1 10 4 0 19 -58 12 -69 -7
-9 -16 -22 -18 -113 -15 -69 2 -123 9 -163 22 -33 11 -80 25 -103 31 -41 11
-43 13 -37 38 8 32 35 78 66 111 20 21 28 23 76 18 30 -3 60 -10 66 -15z
m-1289 -240 c-6 -4 -14 -14 -17 -22 -4 -8 -16 -28 -26 -45 -11 -16 -20 -38
-20 -47 -1 -12 -9 -18 -23 -19 -22 0 -22 -1 -3 -9 l20 -9 -20 -1 c-19 -1 -19
-2 -1 -9 17 -6 16 -9 -10 -19 -16 -6 -58 -20 -94 -31 -36 -10 -73 -22 -83 -26
-13 -6 -16 -3 -11 8 3 9 13 18 22 20 12 3 9 5 -6 6 -13 0 -21 5 -18 9 2 4 -4
8 -14 8 -10 0 -16 -4 -14 -8 5 -7 -55 -3 -62 5 -8 8 89 108 120 124 17 9 78
29 136 44 108 28 144 35 124 21z m1616 -34 c0 -9 4 -8 10 2 6 9 13 11 18 5 4
-5 20 -11 35 -13 34 -4 165 -65 195 -90 23 -20 62 -103 62 -131 0 -23 44 -71
65 -71 8 0 15 5 15 10 0 6 -4 10 -9 10 -5 0 -12 18 -16 40 -8 47 8 78 31 59
11 -9 14 -8 14 2 0 8 7 4 16 -9 14 -21 62 -33 49 -12 -9 14 1 12 35 -5 36 -18
39 -29 8 -21 -13 3 -17 3 -9 0 11 -5 11 -8 0 -16 -10 -6 -7 -7 9 -3 18 5 22 2
22 -15 0 -33 29 -80 49 -80 26 0 33 11 18 28 -10 13 -9 14 11 3 24 -13 26 -17
36 -63 5 -21 12 -28 30 -28 32 0 61 -27 75 -69 13 -41 15 -111 2 -111 -11 0
-128 87 -138 102 -4 8 0 9 11 5 11 -4 15 -3 11 4 -4 6 -14 8 -22 5 -12 -5 -92
41 -113 65 -25 27 -291 166 -392 204 -29 11 -45 22 -42 30 5 12 -59 44 -94 46
-11 1 -8 4 8 9 22 7 20 8 -15 10 -43 2 -96 18 -62 19 13 1 17 8 15 29 -2 35
10 55 29 48 8 -3 11 -1 8 4 -3 6 1 10 9 10 9 0 16 -6 16 -12z m-821 -58 c96
-6 177 -12 179 -15 2 -2 -11 -17 -30 -34 -40 -37 -20 -41 27 -5 19 14 49 30
67 35 123 32 127 32 155 20 22 -10 24 -14 12 -22 -29 -18 16 -10 60 12 86 41
166 -3 226 -126 48 -97 59 -179 58 -430 0 -126 -1 -241 -2 -255 -1 -14 -5 -55
-8 -92 -3 -38 -8 -66 -12 -64 -8 5 -19 -22 -47 -109 -10 -33 -24 -66 -31 -73
-7 -7 -17 -21 -23 -30 -8 -15 -11 -15 -20 -2 -8 13 -10 13 -10 -2 0 -10 -15
-31 -32 -48 -30 -28 -40 -31 -111 -34 -92 -3 -127 14 -127 65 0 36 -18 37 -45
3 -14 -18 -25 -23 -38 -18 -10 3 -16 12 -13 20 3 7 -2 18 -9 24 -8 7 -12 16
-9 21 3 5 -2 18 -10 30 -14 20 -15 19 -21 -27 -3 -27 -12 -74 -20 -104 -8 -30
-16 -68 -18 -85 l-4 -30 -2 33 c0 17 -6 32 -12 32 -7 0 -9 -10 -5 -25 3 -13 3
-43 0 -65 -6 -34 -8 -38 -19 -24 -11 15 -14 15 -38 -1 -24 -15 -27 -15 -27 -2
0 9 -8 21 -17 26 -10 6 -13 11 -7 11 17 0 23 70 8 98 -14 27 -29 13 -19 -17 3
-11 1 -22 -5 -26 -8 -5 -11 22 -9 97 3 138 -7 155 -62 96 -16 -18 -28 -39 -26
-48 1 -9 -5 -14 -15 -14 -10 1 -18 -3 -18 -8 0 -5 -9 -7 -20 -3 -18 6 -19 3
-14 -27 6 -28 4 -31 -7 -20 -20 18 -17 173 4 292 28 148 30 170 21 170 -9 0
-44 -36 -44 -45 0 -2 -18 -41 -40 -88 -38 -79 -54 -132 -66 -223 -6 -39 21
-363 32 -394 3 -8 10 -37 15 -65 17 -96 37 -190 39 -180 1 6 8 -7 15 -28 8
-21 11 -45 8 -54 -4 -11 -3 -14 5 -9 7 4 16 -2 21 -16 5 -13 19 -45 31 -70 12
-26 19 -52 15 -58 -4 -6 -2 -9 3 -8 9 3 62 -65 62 -79 0 -17 146 -171 215
-226 19 -16 35 -33 35 -38 0 -19 -26 -8 -65 27 -22 20 -53 48 -70 63 -16 14
-46 47 -65 71 -19 25 -37 47 -41 50 -4 3 -16 22 -27 44 -11 21 -30 47 -41 57
-11 11 -26 37 -32 59 -7 22 -16 40 -22 40 -5 0 -7 7 -4 14 4 9 1 13 -6 10 -8
-3 -18 14 -26 43 -8 27 -25 71 -38 98 -12 28 -23 70 -24 95 -1 36 -2 40 -8 20
-6 -21 -9 -15 -18 35 -6 33 -18 91 -27 130 -19 83 -20 112 -5 117 9 3 9 29 3
93 -6 68 -9 79 -12 47 -3 -43 -3 -43 -35 -37 -40 8 -58 31 -52 63 2 14 7 45
11 69 6 44 6 44 -15 31 -15 -9 -21 -23 -21 -51 0 -38 0 -38 -21 -18 -18 16
-20 29 -18 96 2 51 8 79 16 82 17 7 17 23 -1 23 -8 0 -13 10 -13 25 0 26 12
34 20 13 2 -7 2 1 0 17 -3 24 -2 27 7 15 10 -12 11 -11 7 8 -3 12 -1 22 5 22
6 0 8 11 5 25 -3 19 4 34 29 59 19 19 34 45 35 58 3 64 8 89 19 104 11 12 15
12 23 2 6 -9 7 -8 3 5 -6 19 41 127 55 127 4 0 11 9 14 20 4 11 11 18 16 15 5
-4 6 2 2 11 -5 13 -3 16 10 11 11 -4 14 -2 11 8 -3 7 6 31 20 54 28 44 35 71
12 48 -19 -19 -112 -156 -161 -237 -21 -36 -41 -67 -44 -70 -3 -3 -7 -12 -8
-20 -10 -62 -190 -341 -204 -318 -6 9 -9 5 -9 -12 l-1 -25 -11 25 -10 25 -9
-22 c-5 -15 -14 -21 -24 -17 -9 4 -15 0 -15 -9 0 -9 -27 -43 -60 -76 -33 -33
-60 -63 -60 -66 0 -13 -29 -35 -34 -26 -4 5 0 12 6 14 10 4 10 7 0 15 -7 5
-12 13 -11 18 1 5 1 26 0 47 -1 35 -2 36 -22 25 -17 -11 -22 -10 -35 6 -8 11
-14 37 -14 57 0 21 -4 40 -9 44 -8 4 17 75 48 135 64 125 133 234 199 315 4 6
32 41 61 79 101 129 256 258 405 336 47 24 84 46 82 48 -3 2 -19 -3 -38 -12
-18 -8 -49 -21 -69 -29 -68 -27 -210 -127 -290 -204 -97 -93 -218 -241 -277
-340 -24 -39 -50 -74 -57 -77 -8 -3 -12 -12 -9 -21 7 -17 -14 -48 -27 -39 -5
3 -9 0 -9 -6 0 -6 -8 -14 -17 -17 -32 -12 -114 -71 -223 -161 -70 -58 -160
-142 -199 -187 -24 -27 -60 -68 -80 -90 -20 -22 -48 -56 -61 -75 -13 -19 -30
-41 -37 -48 -7 -7 -13 -19 -13 -27 0 -7 -3 -15 -7 -17 -16 -6 -145 -257 -179
-346 -15 -37 -33 -82 -41 -100 -8 -19 -24 -64 -34 -100 -80 -271 -105 -380
-113 -496 -9 -121 -25 -129 -21 -11 6 184 66 431 147 615 9 19 21 51 29 70 10
29 49 110 143 297 6 13 14 23 19 23 4 0 7 5 7 10 0 6 12 29 26 52 30 48 23 58
-43 58 -30 0 -48 6 -62 21 -13 14 -28 20 -43 17 l-24 -4 13 60 c12 59 76 196
114 244 10 14 19 29 19 34 0 11 178 189 249 248 114 95 335 250 356 250 3 0
18 11 33 25 l27 25 -35 0 c-26 0 -31 -3 -20 -10 12 -7 6 -13 -24 -25 -21 -9
-51 -26 -66 -37 -17 -12 -33 -17 -42 -13 -7 5 -10 5 -6 0 8 -8 -44 -55 -61
-55 -6 0 -11 -4 -11 -8 0 -5 -21 -24 -47 -43 -80 -57 -238 -195 -355 -310 -38
-37 -68 -64 -68 -61 0 3 -9 -6 -20 -19 -12 -13 -51 -56 -88 -94 -59 -62 -97
-106 -120 -140 -4 -6 -25 -25 -47 -42 -38 -29 -44 -31 -115 -27 -41 3 -76 9
-78 14 -2 6 -10 10 -18 10 -8 0 -11 6 -8 15 5 11 -3 17 -25 21 -17 4 -32 12
-32 18 -4 31 -3 94 1 90 2 -3 10 24 17 61 6 36 19 80 27 97 9 17 16 36 16 41
0 6 11 25 25 43 14 18 25 37 25 42 0 5 9 17 20 27 11 10 18 20 16 23 -6 6
-174 -164 -265 -268 -118 -136 -121 -139 -121 -147 0 -5 -24 -33 -53 -63 -47
-50 -70 -78 -112 -135 -8 -11 -14 -15 -15 -10 0 29 265 361 394 493 214 219
496 438 736 571 114 63 298 150 344 162 23 6 56 19 74 30 34 19 181 69 262 89
231 56 358 79 505 90 55 4 107 8 115 8 8 1 93 -3 189 -8z m-1397 -139 c-8 -4
-13 -11 -12 -15 0 -3 -4 -14 -9 -24 -6 -9 -11 -12 -11 -4 0 6 -7 12 -15 12
-13 0 -13 -3 -3 -19 10 -16 9 -23 -5 -39 -25 -27 -57 -93 -51 -103 2 -4 -8
-16 -23 -26 -15 -10 -30 -20 -33 -24 -6 -7 -66 -39 -75 -39 -3 0 -4 3 -4 8 3
18 -2 26 -10 13 -10 -16 -51 -6 -51 12 1 33 164 181 192 174 20 -6 25 9 6 15
-12 4 89 68 107 68 6 0 4 -4 -3 -9z m2858 -93 c0 -6 -6 -5 -15 2 -8 7 -15 14
-15 16 0 2 7 1 15 -2 8 -4 15 -11 15 -16z m-3177 -183 c-3 -9 -8 -14 -10 -11
-3 3 -2 9 2 15 9 16 15 13 8 -4z m3543 -130 c10 -16 20 -34 21 -40 2 -5 14
-55 28 -110 14 -55 34 -117 45 -137 10 -21 17 -38 15 -38 -9 0 -82 75 -97 100
-9 14 -21 63 -28 109 -7 49 -22 105 -36 133 -13 26 -24 50 -24 53 0 13 58 -41
76 -70z m-3737 -9 c-22 -17 -52 -49 -67 -71 -15 -22 -32 -46 -39 -53 -7 -7 -9
-20 -6 -30 6 -15 5 -16 -12 -2 -17 13 -18 13 -13 0 4 -11 -20 -42 -73 -94 -44
-44 -81 -77 -84 -75 -2 3 28 43 68 89 40 46 94 111 120 144 67 83 131 144 139
132 4 -5 -11 -24 -33 -40z m3619 -49 c6 0 12 -4 12 -9 0 -13 -23 -9 -45 9
l-20 16 20 -8 c11 -4 26 -8 33 -8z m81 -82 c0 -5 -4 -3 -9 5 -5 8 -9 22 -9 30
0 16 17 -16 18 -35z m141 15 c6 -11 8 -20 6 -20 -3 0 -10 9 -16 20 -6 11 -8
20 -6 20 3 0 10 -9 16 -20z m-125 -50 c3 -5 1 -10 -4 -10 -6 0 -11 5 -11 10 0
6 2 10 4 10 3 0 8 -4 11 -10z m-2194 -54 c-11 -25 -22 -46 -25 -46 -2 0 5 22
17 50 11 27 23 48 25 46 2 -3 -5 -25 -17 -50z m2419 -25 c5 -11 7 -22 2 -25
-4 -2 -12 7 -19 20 -13 28 2 33 17 5z m-1231 -176 c35 -340 34 -761 -4 -977
-8 -46 -15 -84 -15 -84 0 -1 -20 -7 -44 -13 -63 -16 -71 -35 -12 -26 30 5 46
4 46 -3 0 -52 -73 -308 -120 -421 -16 -41 -29 -75 -28 -77 2 -1 15 8 30 21 60
52 192 275 258 438 15 35 30 57 39 57 25 -1 191 -38 241 -55 l46 -15 57 -208
c78 -283 103 -402 122 -572 8 -80 17 -165 20 -190 l6 -45 -24 61 c-62 161
-165 268 -353 365 -188 98 -406 88 -509 -22 -29 -30 -29 -31 -6 -24 l24 7 -21
-27 c-36 -46 -28 -54 33 -29 14 5 9 -3 -14 -27 -87 -86 -135 -207 -136 -339 0
-107 22 -174 78 -235 36 -39 56 -50 132 -76 140 -46 261 -79 294 -79 35 0 51
19 27 32 -19 11 -21 49 -4 66 19 19 55 14 78 -10 20 -21 20 -21 35 -2 34 44
85 147 104 209 22 71 26 170 11 260 -4 28 -7 51 -5 53 7 7 100 -128 121 -176
56 -126 58 -275 6 -378 -17 -34 -45 -73 -63 -88 -17 -15 -29 -29 -26 -33 14
-13 118 31 153 66 l36 36 -7 -35 c-23 -112 -225 -355 -355 -426 -28 -15 -47
-30 -41 -32 11 -4 128 14 164 24 9 3 17 1 17 -5 0 -5 -37 -67 -81 -138 -45
-70 -89 -141 -98 -157 -30 -54 -98 -135 -214 -259 l-117 -124 -127 -51 c-334
-131 -671 -204 -1014 -219 -128 -5 -153 -4 -200 13 -79 27 -274 125 -376 187
-48 30 -113 67 -143 83 -30 16 -86 48 -124 72 -37 24 -70 41 -72 39 -3 -2 19
-19 47 -38 49 -31 51 -33 28 -40 -13 -4 -65 -12 -116 -19 -90 -11 -93 -11
-185 18 -51 17 -121 33 -155 37 -58 6 -63 9 -72 38 -24 73 -23 112 3 206 14
52 27 96 30 98 4 5 14 -68 19 -142 l2 -40 23 48 c12 26 25 69 29 94 l6 46 25
-29 c18 -20 20 -22 8 -4 -40 60 -127 252 -150 333 -28 98 -80 356 -73 363 2 2
27 0 54 -6 28 -6 78 -10 112 -8 l63 3 -39 29 c-88 66 -185 242 -243 441 -28
94 -31 120 -27 180 8 99 22 140 53 153 33 16 34 16 34 -10 1 -37 35 -101 75
-138 l37 -35 -6 56 c-10 79 9 183 48 264 76 157 262 283 393 266 29 -4 62 -16
73 -26 24 -21 27 -71 6 -101 -8 -11 -16 -33 -18 -49 -2 -25 -8 -31 -32 -33
-16 -2 -33 1 -39 7 -6 6 -24 11 -40 11 -40 0 -67 17 -82 53 l-13 31 -42 -90
c-43 -88 -43 -90 -43 -199 0 -82 4 -120 17 -150 36 -85 116 -139 216 -148 36
-4 120 -12 188 -18 96 -9 128 -9 149 0 l27 12 -29 23 c-26 21 -28 26 -18 48
14 31 58 41 95 22 25 -13 28 -12 46 14 28 39 49 93 73 186 23 89 21 179 -6
244 -21 48 -19 50 15 17 l30 -29 0 28 c0 15 -5 37 -11 48 -10 18 -9 20 5 15
34 -13 14 22 -46 82 -45 45 -86 74 -140 99 -49 24 -78 43 -78 53 0 26 47 248
69 319 42 141 62 200 87 253 l25 56 37 -16 c20 -8 55 -28 79 -44 43 -30 75
-40 51 -16 -19 19 -136 105 -148 109 -21 7 111 277 238 488 98 162 160 243
127 163 -63 -150 -149 -491 -155 -613 -6 -133 -6 -280 0 -260 5 14 9 63 10
110 2 47 5 119 9 160 5 62 7 41 13 -120 10 -269 47 -440 132 -607 23 -46 150
-172 162 -161 2 3 -7 25 -20 49 -14 24 -32 78 -41 119 -20 92 -30 301 -17 355
l10 40 1 -35 c2 -47 36 -199 63 -280 27 -81 87 -200 133 -262 51 -69 157 -153
252 -198 81 -39 302 -114 311 -106 7 8 -9 27 -18 21 -12 -7 -234 84 -226 92 2
2 28 -7 59 -21 30 -13 58 -21 62 -18 3 4 10 1 14 -7 6 -10 10 -9 14 4 4 9 3
13 -3 10 -6 -3 -10 1 -10 9 0 16 25 22 33 9 2 -5 2 -1 -1 7 -2 8 -5 24 -7 35
-2 11 -6 36 -10 55 -3 19 7 -3 22 -49 16 -47 33 -86 39 -88 6 -2 -1 31 -14 74
l-25 77 21 94 c13 58 51 162 98 271 162 374 196 466 249 666 44 166 95 494 95
620 1 80 16 32 29 -90z m1158 73 c-3 -8 -6 -5 -6 6 -1 11 2 17 5 13 3 -3 4
-12 1 -19z m-2948 -173 c-38 -107 -101 -332 -114 -407 l-6 -38 -77 -1 c-42 0
-99 -4 -127 -9 -27 -4 -52 -6 -53 -5 -5 4 55 93 112 170 25 33 49 67 53 75 11
24 246 331 250 327 1 -2 -16 -52 -38 -112z m2285 89 c9 -24 7 -54 -4 -54 -5 0
-10 9 -10 19 0 11 -3 26 -6 35 -3 9 -2 16 4 16 5 0 13 -7 16 -16z m-2217 -26
c-3 -8 -6 -5 -6 6 -1 11 2 17 5 13 3 -3 4 -12 1 -19z m2077 -175 c3 -3 6 -1 6
5 0 16 77 15 87 0 4 -7 13 -26 18 -43 6 -16 20 -34 32 -40 27 -11 39 -68 24
-109 -6 -15 -11 -60 -12 -99 -1 -107 -8 -122 -49 -122 -29 0 -36 4 -38 23 -2
13 -10 22 -21 22 -12 0 -20 10 -24 28 -3 15 -11 41 -19 57 -7 18 -13 73 -13
135 -1 58 -4 152 -7 210 -6 88 -5 92 1 22 5 -45 11 -86 15 -89z m26 132 c10
-12 10 -15 -4 -15 -9 0 -16 7 -16 15 0 8 2 15 4 15 2 0 9 -7 16 -15z m17 -57
c31 -29 29 -38 -7 -38 -27 0 -30 3 -30 30 0 36 6 37 37 8z m-596 -121 c-10 -9
-11 -8 -5 6 3 10 9 15 12 12 3 -3 0 -11 -7 -18z m533 -104 c-4 -16 -7 -50 -6
-78 1 -49 0 -49 -9 -15 -11 41 -2 120 13 120 6 0 7 -10 2 -27z m-1462 -37 c-9
-18 -11 -16 -11 19 0 33 1 37 10 21 8 -12 8 -25 1 -40z m465 -48 c-3 -7 -5 -2
-5 12 0 14 2 19 5 13 2 -7 2 -19 0 -25z m973 -168 c7 -36 34 -163 62 -283 27
-120 48 -221 45 -223 -2 -2 -21 3 -43 12 -21 9 -79 25 -128 35 -48 10 -90 20
-93 23 -2 2 9 45 26 96 39 117 77 290 91 405 5 50 10 95 11 100 1 6 5 -15 10
-45 4 -30 13 -84 19 -120z m217 133 c-3 -10 -5 -4 -5 12 0 17 2 24 5 18 2 -7
2 -21 0 -30z m-3952 -3 c3 -5 1 -10 -4 -10 -6 0 -11 5 -11 10 0 6 2 10 4 10 3
0 8 -4 11 -10z m3775 -51 c0 -11 -4 -18 -10 -14 -5 3 -7 12 -3 20 7 21 13 19
13 -6z m-2274 -86 c-26 -160 -31 -500 -9 -622 l6 -34 -69 6 c-118 11 -224 -13
-374 -86 -73 -35 -101 -57 -198 -154 -113 -113 -157 -143 -129 -85 8 15 22 52
32 82 63 197 229 547 338 711 35 53 78 121 96 152 17 30 37 58 44 60 7 3 70 6
141 6 l129 1 -7 -37z m2324 17 c0 -5 -2 -10 -4 -10 -3 0 -8 5 -11 10 -3 6 -1
10 4 10 6 0 11 -4 11 -10z m-181 -127 c-7 -37 -15 -59 -17 -49 -5 22 18 129
26 122 2 -3 -2 -36 -9 -73z m-3872 -295 c-3 -8 -6 -5 -6 6 -1 11 2 17 5 13 3
-3 4 -12 1 -19z m-10 -70 c-2 -13 -4 -5 -4 17 -1 22 1 32 4 23 2 -10 2 -28 0
-40z m155 -236 c-35 -134 -46 -274 -39 -500 4 -114 13 -243 21 -287 9 -44 18
-109 21 -145 l5 -65 -21 55 c-11 30 -32 107 -47 170 -23 104 -26 135 -26 315
-1 128 4 221 12 260 18 79 63 227 74 240 4 5 8 20 9 35 0 14 3 19 6 12 3 -7
-4 -48 -15 -90z m2318 -13 c15 -28 5 -23 -15 7 -9 15 -12 23 -6 20 6 -4 16
-16 21 -27z m-2948 -1 c-7 -7 -12 -8 -12 -2 0 14 12 26 19 19 2 -3 -1 -11 -7
-17z m4082 -24 c3 -8 2 -12 -4 -9 -6 3 -10 10 -10 16 0 14 7 11 14 -7z m-4134
-61 c-11 -17 -11 -17 -6 0 3 10 6 24 7 30 0 9 2 9 5 0 3 -7 0 -20 -6 -30z
m139 -18 c0 -5 -4 -3 -9 5 -5 8 -9 22 -9 30 0 16 17 -16 18 -35z m3498 14 c7
-14 13 -18 13 -9 0 13 1 13 10 0 12 -19 6 -23 -19 -15 -12 3 -21 13 -21 21 0
8 -4 12 -10 9 -5 -3 -10 1 -10 10 0 23 22 13 37 -16z m456 -51 c-14 -21 -27
-38 -30 -38 -6 0 26 58 36 65 6 3 8 13 5 23 -5 14 -4 14 4 3 7 -10 3 -25 -15
-53z m-1651 10 c62 -33 93 -78 105 -154 7 -45 -8 -40 -32 11 -18 37 -67 91
-135 149 -53 45 -31 43 62 -6z m1258 0 c0 -25 -3 -29 -10 -18 -13 20 -13 50 0
50 6 0 10 -15 10 -32z m-2180 -182 c0 -12 -43 -95 -61 -116 l-21 -25 6 25 c4
14 12 46 18 73 10 39 15 47 35 47 13 0 23 -2 23 -4z m2607 -186 c40 -24 52
-63 30 -99 -9 -15 -13 -38 -10 -54 10 -51 -32 -72 -85 -42 -15 8 -46 19 -70
25 -106 27 -81 137 39 175 58 18 59 18 96 -5z m-1934 -5 c7 -16 -8 -29 -23
-20 -10 6 -2 35 10 35 4 0 10 -7 13 -15z m2304 -77 c42 -45 53 -70 53 -117 0
-30 -4 -41 -15 -41 -8 0 -15 7 -15 15 0 9 -18 49 -40 89 -36 65 -41 86 -20 86
3 0 20 -15 37 -32z m1283 -208 c-39 -381 -108 -641 -224 -849 -56 -98 -92
-142 -167 -202 -39 -31 -50 -29 -25 3 7 10 17 14 21 10 5 -4 5 1 2 11 -4 9 -3
17 2 17 4 0 24 22 43 50 19 27 39 46 43 42 5 -4 5 -2 1 5 -3 6 8 36 25 65 46
77 96 171 104 199 4 13 13 38 20 54 7 17 21 53 30 80 10 28 20 57 23 65 3 8 4
25 3 38 -1 12 2 22 7 22 5 0 14 33 20 73 6 39 16 98 23 130 10 44 11 60 2 65
-9 6 -9 24 3 77 8 39 19 99 25 134 23 145 37 82 19 -89z m-3552 116 c62 -39
95 -87 71 -102 -13 -7 -261 17 -272 26 -5 4 -3 20 5 34 35 66 127 86 196 42z
m1972 -252 c0 -17 -22 -14 -28 4 -2 7 3 12 12 12 9 0 16 -7 16 -16z m-5 -169
c38 -28 79 -107 61 -116 -15 -9 -266 73 -266 87 0 14 29 40 60 53 37 16 109 4
145 -24z m-3171 -208 c28 -38 42 -65 39 -78 -8 -28 -17 -24 -57 23 -37 43 -89
163 -101 233 -6 35 -2 31 34 -40 23 -44 61 -106 85 -138z m587 76 l24 -27 -24
15 c-14 9 -27 21 -29 27 -6 19 3 14 29 -15z m-1091 -78 c44 -135 139 -292 236
-389 31 -31 54 -59 51 -62 -3 -3 -30 1 -60 10 -49 14 -91 44 -122 87 -13 18
-69 135 -84 174 -11 30 -61 241 -61 260 0 23 19 -15 40 -80z m341 -93 c15 -34
51 -86 78 -115 l51 -54 -26 -76 c-14 -42 -29 -77 -32 -77 -11 0 -59 119 -77
190 -17 66 -46 217 -44 235 0 6 5 -1 11 -15 6 -14 24 -53 39 -88z m-320 -185
c-10 -9 -11 -8 -5 6 3 10 9 15 12 12 3 -3 0 -11 -7 -18z m3979 -81 c0 -3 -4
-8 -10 -11 -5 -3 -10 -1 -10 4 0 6 5 11 10 11 6 0 10 -2 10 -4z m480 -231 c0
-9 -60 -65 -69 -65 -21 0 4 42 33 55 39 17 36 16 36 10z m-4081 -72 c-5 -32
-16 -89 -25 -128 -9 -38 -16 -80 -16 -92 0 -13 -4 -23 -9 -23 -12 0 -6 -83 7
-97 19 -20 27 -15 20 12 -6 23 -4 25 17 20 26 -7 36 11 37 65 1 20 3 18 15
-14 8 -22 12 -43 9 -47 -2 -4 -1 -9 4 -11 4 -1 17 -19 29 -39 l21 -37 -20 -58
c-24 -72 -58 -236 -58 -285 0 -20 -3 -39 -7 -43 -5 -4 -6 -67 -4 -139 1 -73 1
-130 -2 -127 -3 3 -13 48 -22 100 -22 119 -30 350 -17 455 12 87 2 132 -17 81
-13 -32 -31 -225 -31 -328 0 -38 -4 -68 -9 -68 -4 0 -7 24 -5 53 l3 52 -8 -53
c-13 -78 -21 -75 -23 9 -5 215 17 417 74 664 33 141 51 180 37 78z m-118 -316
c-13 -13 -15 21 -3 50 6 15 8 13 10 -11 2 -16 -1 -33 -7 -39z m310 -67 c5 0 9
-18 9 -41 0 -22 3 -38 8 -36 4 3 8 -8 8 -25 1 -17 7 -33 13 -37 7 -5 11 -12
10 -17 -3 -9 -1 -16 32 -124 10 -36 38 -141 60 -235 48 -203 66 -281 85 -370
12 -56 25 -177 20 -182 -3 -4 -6 4 -6 17 0 31 -22 90 -33 90 -5 0 -7 7 -3 15
8 22 -3 45 -20 38 -8 -3 -14 -1 -14 5 0 5 9 12 20 15 11 3 20 11 19 19 0 10
-2 10 -6 1 -6 -16 -23 -17 -23 -2 0 15 -30 43 -38 35 -3 -4 0 -11 8 -17 13 -7
13 -10 1 -18 -9 -6 -10 -11 -3 -15 6 -4 8 -14 5 -22 -3 -9 0 -20 8 -25 10 -6
11 -11 3 -19 -8 -8 -15 -2 -24 22 -7 18 -28 65 -47 105 -76 161 -132 441 -133
661 0 68 3 91 12 86 8 -5 10 8 5 50 -3 31 -3 73 1 94 7 36 7 36 10 -15 2 -29
7 -53 13 -53z m-317 8 c-6 -41 -19 -67 -28 -57 -5 5 23 99 29 99 3 0 2 -19 -1
-42z m946 21 c47 -12 89 -25 94 -29 11 -11 -104 -22 -172 -18 -50 3 -55 5 -67
36 l-14 32 37 0 c20 0 75 -10 122 -21z m-236 -55 c3 -8 2 -12 -4 -9 -6 3 -10
10 -10 16 0 14 7 11 14 -7z m2591 -30 c-28 -42 -143 -190 -158 -202 -11 -10
-17 -9 -26 2 -9 11 8 34 90 120 56 58 103 106 106 106 3 0 -2 -12 -12 -26z
m-85 -21 c-12 -16 -48 -56 -81 -90 l-59 -62 -67 31 c-37 18 -63 33 -57 35 5 2
68 27 139 57 72 30 134 54 138 55 5 1 -1 -11 -13 -26z m800 12 c0 -8 -4 -15
-10 -15 -5 0 -7 7 -4 15 4 8 8 15 10 15 2 0 4 -7 4 -15z m-689 -18 c-10 -9
-11 -8 -5 6 3 10 9 15 12 12 3 -3 0 -11 -7 -18z m-2551 9 c0 -2 -7 -9 -15 -16
-13 -11 -14 -10 -9 4 5 14 24 23 24 12z m10 -31 c0 -8 -4 -15 -10 -15 -5 0 -7
7 -4 15 4 8 8 15 10 15 2 0 4 -7 4 -15z m3155 -62 c-6 -36 -5 -37 8 -15 12 21
13 16 11 -55 -3 -139 -67 -302 -212 -545 -49 -81 -79 -123 -84 -115 -5 8 -8 6
-8 -6 0 -9 -12 -36 -27 -60 -30 -46 -63 -83 -63 -69 0 5 9 17 20 27 12 11 18
26 15 35 -3 10 0 20 7 23 7 2 19 26 27 52 8 26 22 63 31 83 11 23 17 54 15 89
-1 29 2 53 7 53 8 0 41 66 83 165 9 22 27 60 41 85 14 25 32 62 40 83 14 33
44 52 44 28 0 -5 9 -11 21 -14 34 -9 46 33 24 82 -12 28 -15 51 -11 75 9 48
19 46 11 -1z m45 -23 c0 -27 -3 -50 -7 -50 -5 0 -6 22 -5 50 5 65 12 65 12 0z
m-3110 -4 c0 -3 -4 -8 -10 -11 -5 -3 -10 -1 -10 4 0 6 5 11 10 11 6 0 10 -2
10 -4z m35 -45 c-6 -5 -25 10 -25 20 0 5 6 4 14 -3 8 -7 12 -15 11 -17z m-441
3 c3 -9 2 -12 -5 -9 -11 7 -3 -52 12 -90 7 -17 8 -17 8 -2 1 28 21 19 22 -10
l1 -28 13 30 14 30 1 -32 c0 -18 4 -33 8 -33 10 0 34 -88 27 -100 -3 -4 2 -13
10 -20 8 -7 15 -20 15 -29 1 -9 10 -41 21 -71 18 -51 31 -179 21 -208 -5 -15
-42 23 -42 44 0 7 -9 18 -20 24 -11 6 -18 15 -15 20 3 6 1 18 -5 27 -10 16
-10 15 -5 -4 3 -12 2 -24 -3 -27 -6 -3 -12 4 -15 17 -3 12 -15 60 -27 107 -12
47 -26 110 -31 140 -6 30 -14 67 -18 81 -5 15 -5 32 -1 39 4 7 4 28 -1 49 -11
48 1 92 15 55z m3460 0 c3 -8 2 -12 -4 -9 -6 3 -10 10 -10 16 0 14 7 11 14 -7z
m-458 -30 c-4 -9 -9 -15 -11 -12 -3 3 -3 13 1 22 4 9 9 15 11 12 3 -3 3 -13
-1 -22z m447 9 c2 -5 7 -21 11 -38 5 -24 4 -26 -4 -12 -6 9 -18 17 -25 17 -17
0 -17 2 -9 24 6 17 20 21 27 9z m24 -25 c-3 -8 -6 -5 -6 6 -1 11 2 17 5 13 3
-3 4 -12 1 -19z m-544 -79 c-4 -15 0 -22 16 -26 12 -3 21 -13 21 -24 0 -16 5
-18 25 -13 14 3 25 4 25 1 0 -16 -32 -77 -40 -77 -6 0 -10 -13 -10 -30 0 -16
-5 -30 -11 -30 -16 0 -39 -26 -39 -45 0 -8 -7 -18 -16 -22 -11 -4 -13 -14 -9
-37 4 -19 3 -26 -3 -18 -21 31 -60 -17 -47 -59 5 -16 2 -22 -15 -26 -14 -4
-20 -12 -17 -22 3 -11 -3 -16 -20 -17 -13 -1 -30 -5 -39 -8 -15 -6 -15 -8 1
-25 13 -15 14 -24 6 -38 -9 -15 -10 -16 -11 -2 0 9 -8 20 -17 23 -22 9 -43
-18 -43 -56 0 -16 -5 -37 -12 -47 -11 -18 -12 -18 -44 3 -23 14 -34 30 -36 51
-4 33 17 85 33 85 23 0 39 30 39 76 0 40 2 45 15 34 13 -10 15 -9 16 11 1 27
27 102 28 81 2 -23 21 -2 21 23 0 13 6 30 13 37 6 7 21 29 31 48 11 19 38 60
60 90 55 76 90 102 79 59z m-3246 -61 c-3 -8 -6 -5 -6 6 -1 11 2 17 5 13 3 -3
4 -12 1 -19z m0 -270 c-3 -8 -6 -5 -6 6 -1 11 2 17 5 13 3 -3 4 -12 1 -19z
m510 -56 c3 -27 1 -52 -3 -55 -5 -3 -10 22 -11 55 -3 71 6 71 14 0z m2988 -13
c-38 -53 -45 -41 -9 14 16 25 31 40 33 35 1 -5 -9 -27 -24 -49z m-3537 -20
c-3 -8 -7 -3 -11 10 -4 17 -3 21 5 13 5 -5 8 -16 6 -23z m2992 -9 c0 -5 -5
-10 -11 -10 -5 0 -7 5 -4 10 3 6 8 10 11 10 2 0 4 -4 4 -10z m-2430 -46 c0 -8
-5 -12 -10 -9 -6 4 -8 11 -5 16 9 14 15 11 15 -7z m-53 -51 c-3 -10 -5 -2 -5
17 0 19 2 27 5 18 2 -10 2 -26 0 -35z m33 6 c0 -16 -4 -29 -9 -29 -5 0 -9 16
-9 35 0 19 4 32 9 29 5 -3 9 -18 9 -35z m-506 5 c3 -8 2 -12 -4 -9 -6 3 -10
10 -10 16 0 14 7 11 14 -7z m536 -25 c0 -18 -4 -28 -10 -24 -6 4 -9 19 -8 35
3 37 18 28 18 -11z m2520 11 c0 -5 -4 -10 -9 -10 -6 0 -13 5 -16 10 -3 6 1 10
9 10 9 0 16 -4 16 -10z m-2551 -57 c-3 -33 1 -35 21 -12 10 13 19 18 20 12 0
-7 -4 -13 -10 -13 -5 0 -10 -17 -10 -37 0 -21 -5 -45 -11 -53 -9 -13 -10 -13
-6 0 2 8 -2 29 -10 47 -16 39 -17 73 -2 73 5 0 9 -8 8 -17z m2407 -7 c21 -22
17 -36 -11 -36 -26 0 -29 7 -19 34 8 20 12 20 30 2z m-2356 -76 c0 -13 -1 -13
-10 0 -5 8 -10 22 -10 30 0 13 1 13 10 0 5 -8 10 -22 10 -30z m2431 -18 c-6
-2 -11 -13 -11 -24 0 -12 -3 -18 -7 -15 -3 4 0 26 8 49 12 37 14 39 17 18 2
-13 -1 -26 -7 -28z m-314 -14 c-3 -8 -6 -5 -6 6 -1 11 2 17 5 13 3 -3 4 -12 1
-19z m-31 -94 c-8 -21 -15 -32 -15 -23 -1 22 22 86 26 73 2 -5 -3 -28 -11 -50z
m274 6 c0 -5 -4 -10 -10 -10 -5 0 -10 5 -10 10 0 6 5 10 10 10 6 0 10 -4 10
-10z m21 -23 c-10 -9 -11 -8 -5 6 3 10 9 15 12 12 3 -3 0 -11 -7 -18z m-314
-69 c-3 -8 -6 -5 -6 6 -1 11 2 17 5 13 3 -3 4 -12 1 -19z m-10 -80 c-3 -8 -6
-5 -6 6 -1 11 2 17 5 13 3 -3 4 -12 1 -19z"/>
<path d="M4130 6250 c0 -5 5 -10 10 -10 6 0 10 5 10 10 0 6 -4 10 -10 10 -5 0
-10 -4 -10 -10z"/>
<path d="M4164 6242 c3 -6 -2 -12 -11 -14 -15 -3 -14 -5 5 -10 24 -7 32 15 10
28 -6 4 -8 3 -4 -4z"/>
<path d="M2646 5954 c-8 -22 -4 -25 11 -9 7 8 9 16 4 19 -5 3 -12 -1 -15 -10z"/>
<path d="M4750 5910 c8 -5 20 -10 25 -10 6 0 3 5 -5 10 -8 5 -19 10 -25 10 -5
0 -3 -5 5 -10z"/>
<path d="M4847 5869 c7 -7 15 -10 18 -7 3 3 -2 9 -12 12 -14 6 -15 5 -6 -5z"/>
<path d="M4230 5765 c0 -24 -4 -66 -10 -92 -5 -26 -14 -97 -20 -158 -5 -60
-14 -144 -20 -185 -14 -113 -22 -278 -12 -255 30 67 92 735 69 735 -4 0 -7
-20 -7 -45z"/>
<path d="M3906 5711 c-3 -5 0 -11 8 -14 15 -6 26 1 26 15 0 11 -27 10 -34 -1z"/>
<path d="M3872 5683 c9 -2 22 -21 29 -40 11 -34 13 -35 25 -18 23 31 17 52
-17 59 -35 7 -64 6 -37 -1z"/>
<path d="M4247 5618 c-4 -29 -7 -64 -7 -77 0 -24 1 -24 14 -5 11 15 17 16 27
7 18 -18 3 -46 -20 -38 -16 5 -21 0 -26 -28 -4 -19 -5 -45 -2 -58 3 -17 5 -12
6 14 1 29 5 37 20 37 26 0 81 -32 81 -47 0 -7 9 -17 20 -23 11 -6 20 -18 20
-28 0 -9 7 -25 14 -34 12 -16 16 -14 43 25 31 45 30 34 25 215 -1 46 -6 71
-12 67 -5 -3 -10 -15 -10 -26 0 -10 -4 -19 -10 -19 -5 0 -10 7 -10 15 0 8 -4
15 -10 15 -5 0 -10 7 -10 15 0 12 -12 15 -55 14 -52 -2 -55 -4 -55 -27 0 -14
-3 -22 -7 -18 -4 4 -8 17 -8 28 0 12 -5 23 -11 25 -7 2 -14 -17 -17 -49z"/>
<path d="M2925 5640 c-3 -5 -1 -10 4 -10 6 0 11 5 11 10 0 6 -2 10 -4 10 -3 0
-8 -4 -11 -10z"/>
<path d="M2769 5612 c-14 -17 -14 -19 8 -29 13 -6 23 -7 23 -3 0 5 -6 11 -12
13 -10 4 -10 6 0 6 13 1 17 31 4 31 -4 0 -15 -8 -23 -18z"/>
<path d="M3726 5593 c-14 -15 -23 -30 -20 -35 10 -16 24 -8 30 17 5 21 10 24
32 18 25 -6 26 -5 10 10 -22 22 -23 22 -52 -10z"/>
<path d="M3960 5601 l-45 -7 48 -4 c33 -4 47 -2 47 7 0 7 -1 12 -2 11 -2 0
-23 -4 -48 -7z"/>
<path d="M3670 5555 c0 -13 10 -26 33 -44 15 -12 17 -11 17 3 0 9 -8 20 -17
23 -10 4 -21 11 -25 17 -5 7 -8 7 -8 1z"/>
<path d="M3642 5501 c-10 -29 -10 -30 14 -19 14 7 23 18 22 26 -5 28 -26 23
-36 -7z"/>
<path d="M3535 5480 c-3 -5 -1 -10 4 -10 6 0 11 5 11 10 0 6 -2 10 -4 10 -3 0
-8 -4 -11 -10z"/>
<path d="M2963 5407 c-1 -30 -1 -31 8 -8 5 14 6 28 2 32 -4 4 -9 -6 -10 -24z"/>
<path d="M3000 5425 c0 -9 -7 -27 -16 -41 -9 -13 -15 -27 -12 -29 2 -3 14 13
26 34 14 25 19 42 12 46 -5 3 -10 -1 -10 -10z"/>
<path d="M3690 5430 c0 -5 4 -10 9 -10 6 0 13 5 16 10 3 6 -1 10 -9 10 -9 0
-16 -4 -16 -10z"/>
<path d="M4161 5344 c0 -11 3 -14 6 -6 3 7 2 16 -1 19 -3 4 -6 -2 -5 -13z"/>
<path d="M2915 5330 c-4 -7 3 -8 22 -4 38 9 42 14 10 14 -14 0 -29 -5 -32 -10z"/>
<path d="M2905 5270 c3 -5 8 -10 11 -10 2 0 4 5 4 10 0 6 -5 10 -11 10 -5 0
-7 -4 -4 -10z"/>
<path d="M4522 5168 c-1 -20 -5 -45 -8 -55 -5 -14 -4 -15 5 -7 7 7 11 29 8 55
-3 42 -4 42 -5 7z"/>
<path d="M4001 5074 c0 -11 3 -14 6 -6 3 7 2 16 -1 19 -3 4 -6 -2 -5 -13z"/>
<path d="M4481 5004 c0 -11 3 -14 6 -6 3 7 2 16 -1 19 -3 4 -6 -2 -5 -13z"/>
<path d="M3996 4975 c-3 -8 -1 -15 4 -15 6 0 10 7 10 15 0 8 -2 15 -4 15 -2 0
-6 -7 -10 -15z"/>
<path d="M3330 4905 c0 -14 5 -25 10 -25 6 0 10 11 10 25 0 14 -4 25 -10 25
-5 0 -10 -11 -10 -25z"/>
<path d="M2151 4734 c0 -11 3 -14 6 -6 3 7 2 16 -1 19 -3 4 -6 -2 -5 -13z"/>
<path d="M3490 4575 c0 -8 5 -15 10 -15 6 0 10 7 10 15 0 8 -4 15 -10 15 -5 0
-10 -7 -10 -15z"/>
<path d="M2236 5773 c-6 -14 -5 -15 5 -6 7 7 10 15 7 18 -3 3 -9 -2 -12 -12z"/>
<path d="M2188 5643 c7 -3 16 -2 19 1 4 3 -2 6 -13 5 -11 0 -14 -3 -6 -6z"/>
<path d="M2950 3730 c46 -38 65 -38 22 0 -18 17 -38 30 -44 30 -7 0 3 -13 22
-30z"/>
<path d="M4573 3483 c20 -2 54 -2 75 0 20 2 3 4 -38 4 -41 0 -58 -2 -37 -4z"/>
<path d="M4730 3470 c8 -5 22 -9 30 -9 10 0 8 3 -5 9 -27 12 -43 12 -25 0z"/>
<path d="M4818 3443 c7 -3 16 -2 19 1 4 3 -2 6 -13 5 -11 0 -14 -3 -6 -6z"/>
<path d="M3500 2705 c0 -8 4 -15 10 -15 5 0 7 7 4 15 -4 8 -8 15 -10 15 -2 0
-4 -7 -4 -15z"/>
<path d="M2981 2226 c-44 -16 -60 -48 -61 -123 0 -84 31 -167 82 -216 22 -21
42 -36 45 -33 3 3 -6 15 -19 28 -14 13 -32 37 -41 54 -16 30 -15 32 18 81 19
28 53 67 76 86 45 39 154 86 219 94 43 6 212 -29 258 -53 15 -8 37 -14 49 -14
16 0 21 -4 16 -16 -5 -13 -2 -15 13 -10 10 3 26 1 34 -5 12 -8 10 -9 -7 -4
-26 7 -32 -9 -8 -19 9 -3 30 -36 48 -73 25 -54 32 -83 34 -138 2 -74 -3 -87
-52 -117 -25 -15 -26 -18 -10 -18 53 0 135 91 160 177 25 86 10 116 -89 175
-119 72 -242 113 -428 143 -110 18 -289 18 -337 1z m286 -22 c-3 -3 -12 -4
-19 -1 -8 3 -5 6 6 6 11 1 17 -2 13 -5z"/>
<path d="M1512 1260 c0 -72 2 -78 8 -40 4 25 4 63 0 85 -6 32 -8 22 -8 -45z"/>
<path d="M1675 550 c3 -5 8 -10 11 -10 2 0 4 5 4 10 0 6 -5 10 -11 10 -5 0 -7
-4 -4 -10z"/>
<path d="M5110 1021 c0 -6 4 -13 10 -16 6 -3 7 1 4 9 -7 18 -14 21 -14 7z"/>
<path d="M1695 970 c3 -5 8 -10 11 -10 2 0 4 5 4 10 0 6 -5 10 -11 10 -5 0 -7
-4 -4 -10z"/>
<path d="M1752 760 c0 -14 2 -19 5 -12 2 6 2 18 0 25 -3 6 -5 1 -5 -13z"/>
<path d="M4551 944 c0 -11 3 -14 6 -6 3 7 2 16 -1 19 -3 4 -6 -2 -5 -13z"/>
<path d="M4458 773 c7 -3 16 -2 19 1 4 3 -2 6 -13 5 -11 0 -14 -3 -6 -6z"/>
<path d="M4391 664 c0 -11 3 -14 6 -6 3 7 2 16 -1 19 -3 4 -6 -2 -5 -13z"/>
<path d="M4291 494 c0 -11 3 -14 6 -6 3 7 2 16 -1 19 -3 4 -6 -2 -5 -13z"/>
<path d="M4320 410 c0 -5 5 -10 11 -10 5 0 7 5 4 10 -3 6 -8 10 -11 10 -2 0
-4 -4 -4 -10z"/>
<path d="M4032 6383 c6 -7 14 -10 19 -7 15 9 10 20 -10 20 -15 0 -17 -3 -9
-13z"/>
<path d="M4070 6370 c0 -5 5 -10 11 -10 5 0 7 5 4 10 -3 6 -8 10 -11 10 -2 0
-4 -4 -4 -10z"/>
<path d="M4984 6280 c0 -11 3 -20 7 -20 4 0 9 9 12 20 3 12 0 20 -7 20 -6 0
-12 -9 -12 -20z"/>
<path d="M5050 6204 c19 -9 53 -18 75 -20 l40 -4 -30 14 c-16 7 -50 16 -75 20
l-45 6 35 -16z"/>
<path d="M3715 6135 c-30 -13 -30 -13 25 -14 62 -1 96 12 58 22 -33 9 -49 8
-83 -8z"/>
<path d="M4616 5448 c-8 -32 -7 -98 2 -98 4 0 7 27 8 60 0 33 -1 60 -2 60 -1
0 -4 -10 -8 -22z"/>
<path d="M4812 5335 c0 -16 2 -22 5 -12 2 9 2 23 0 30 -3 6 -5 -1 -5 -18z"/>
<path d="M4801 5263 c0 -10 7 -36 15 -58 7 -22 12 -29 9 -15 -3 14 -5 40 -5
58 0 17 -4 32 -10 32 -5 0 -10 -8 -9 -17z"/>
<path d="M4910 5242 c0 -23 4 -42 9 -42 6 0 7 17 4 38 -8 51 -13 53 -13 4z"/>
<path d="M4621 5184 c0 -11 3 -14 6 -6 3 7 2 16 -1 19 -3 4 -6 -2 -5 -13z"/>
<path d="M5150 5030 c0 -5 5 -10 10 -10 6 0 10 5 10 10 0 6 -4 10 -10 10 -5 0
-10 -4 -10 -10z"/>
<path d="M5505 5029 c-4 -6 -5 -12 -2 -15 2 -3 7 2 10 11 7 17 1 20 -8 4z"/>
<path d="M5280 4949 c0 -5 5 -7 10 -4 6 3 10 8 10 11 0 2 -4 4 -10 4 -5 0 -10
-5 -10 -11z"/>
<path d="M5560 4908 c0 -9 5 -20 10 -23 13 -8 13 5 0 25 -8 13 -10 13 -10 -2z"/>
<path d="M5597 4829 c7 -7 15 -10 18 -7 3 3 -2 9 -12 12 -14 6 -15 5 -6 -5z"/>
<path d="M6111 4634 c0 -11 3 -14 6 -6 3 7 2 16 -1 19 -3 4 -6 -2 -5 -13z"/>
<path d="M4812 4615 c0 -16 2 -22 5 -12 2 9 2 23 0 30 -3 6 -5 -1 -5 -18z"/>
<path d="M5320 4506 c0 -9 5 -16 10 -16 6 0 10 4 10 9 0 6 -4 13 -10 16 -5 3
-10 -1 -10 -9z"/>
<path d="M6276 3924 c-7 -19 3 -95 16 -111 5 -6 9 -67 9 -134 0 -67 2 -119 4
-117 13 13 22 109 15 153 -4 28 -14 84 -21 125 -7 41 -12 81 -10 88 3 17 -6
15 -13 -4z"/>
<path d="M5950 3771 c0 -6 5 -13 10 -16 6 -3 10 1 10 9 0 9 -4 16 -10 16 -5 0
-10 -4 -10 -9z"/>
<path d="M6336 3545 c8 -151 17 -240 24 -253 10 -19 -1 150 -16 248 l-13 85 5
-80z"/>
<path d="M505 3530 c-3 -5 -1 -10 4 -10 6 0 11 5 11 10 0 6 -2 10 -4 10 -3 0
-8 -4 -11 -10z"/>
<path d="M173 3515 c-3 -9 -3 -18 -1 -21 3 -3 8 4 11 16 6 23 -1 27 -10 5z"/>
<path d="M6293 3450 c0 -41 2 -58 4 -37 2 20 2 54 0 75 -2 20 -4 3 -4 -38z"/>
<path d="M241 3484 c-15 -34 -9 -40 14 -14 12 14 15 24 8 31 -6 6 -14 1 -22
-17z"/>
<path d="M156 3454 c-4 -14 -5 -29 -2 -31 3 -3 8 7 12 21 3 15 4 29 1 32 -2 3
-8 -7 -11 -22z"/>
<path d="M6277 3303 c-4 -32 -9 -74 -12 -93 -4 -28 -4 -30 4 -14 11 24 27 164
19 164 -3 0 -8 -26 -11 -57z"/>
<path d="M6362 3220 c0 -14 2 -19 5 -12 2 6 2 18 0 25 -3 6 -5 1 -5 -13z"/>
<path d="M246 3205 c-3 -9 -6 -24 -5 -33 0 -9 5 -4 10 12 9 32 6 48 -5 21z"/>
<path d="M227 3131 c-4 -17 -3 -21 5 -13 5 5 8 16 6 23 -3 8 -7 3 -11 -10z"/>
<path d="M6241 3099 c-15 -68 -7 -75 9 -9 7 28 10 53 7 56 -3 3 -10 -18 -16
-47z"/>
<path d="M631 2934 c0 -11 3 -14 6 -6 3 7 2 16 -1 19 -3 4 -6 -2 -5 -13z"/>
<path d="M441 2704 c0 -11 3 -14 6 -6 3 7 2 16 -1 19 -3 4 -6 -2 -5 -13z"/>
<path d="M835 1960 c10 -11 20 -20 23 -20 3 0 -3 9 -13 20 -10 11 -20 20 -23
20 -3 0 3 -9 13 -20z"/>
<path d="M4202 1038 c-55 -73 -124 -181 -159 -253 -51 -100 -47 -116 4 -23 27
48 89 138 139 200 49 62 91 116 92 120 2 4 -5 8 -16 8 -12 0 -35 -21 -60 -52z"/>
<path d="M5485 582 c42 -36 83 -117 99 -196 l16 -79 -70 -150 c-65 -138 -81
-192 -43 -142 43 57 143 323 143 382 0 48 -24 119 -51 153 l-20 25 20 -40 c10
-23 22 -59 26 -80 l6 -40 -24 47 c-29 57 -94 138 -110 138 -7 -1 -3 -8 8 -18z"/>
<path d="M5956 450 c3 -14 11 -32 16 -40 6 -10 7 -7 2 10 -3 14 -11 32 -16 40
-6 10 -7 7 -2 -10z"/>
<path d="M371 192 c-1 -22 61 -192 70 -192 13 0 11 9 -10 54 -10 23 -28 66
-39 96 -12 30 -21 49 -21 42z"/>
<path d="M2920 180 c0 -5 10 -15 23 -21 22 -12 22 -12 3 10 -21 23 -26 26 -26
11z"/>
<path d="M2900 171 c0 -6 4 -13 10 -16 6 -3 7 1 4 9 -7 18 -14 21 -14 7z"/>
<path d="M2930 144 c0 -19 27 -37 35 -24 4 6 4 14 1 17 -3 4 -6 0 -6 -7 0 -9
-5 -7 -15 6 -8 10 -15 14 -15 8z"/>
<path d="M5901 49 c-7 -22 -11 -43 -8 -45 2 -2 9 14 16 37 7 22 11 43 8 45 -2
2 -9 -14 -16 -37z"/>
<path d="M3435 40 c-3 -5 -1 -10 4 -10 6 0 11 5 11 10 0 6 -2 10 -4 10 -3 0
-8 -4 -11 -10z"/>
</g>
</svg>
